<?xml version="1.0" encoding="UTF-8" standalone="no"?>
<!-- Created with Inkscape (http://www.inkscape.org/) -->

<svg
   version="1.1"
   id="svg2"
   width="1000"
   height="666.66669"
   viewBox="0 0 1000 666.66669"
   sodipodi:docname="2824235.eps"
   xmlns:inkscape="http://www.inkscape.org/namespaces/inkscape"
   xmlns:sodipodi="http://sodipodi.sourceforge.net/DTD/sodipodi-0.dtd"
   xmlns="http://www.w3.org/2000/svg"
   xmlns:svg="http://www.w3.org/2000/svg">
  <defs
     id="defs6" />
  <sodipodi:namedview
     id="namedview4"
     pagecolor="#ffffff"
     bordercolor="#000000"
     borderopacity="0.25"
     inkscape:showpageshadow="2"
     inkscape:pageopacity="0.0"
     inkscape:pagecheckerboard="0"
     inkscape:deskcolor="#d1d1d1" />
  <g
     id="g8"
     inkscape:groupmode="layer"
     inkscape:label="ink_ext_XXXXXX"
     transform="matrix(1.3333333,0,0,-1.3333333,0,666.66667)">
    <g
       id="g10"
       transform="scale(0.1)">
      <path
         d="M 0,0 H 7500 V 5000 H 0 Z"
         style="fill:#ffffff;fill-opacity:1;fill-rule:nonzero;stroke:none"
         id="path12" />
      <path
         d="M -630,-450 H 8160 V 5400 H -630 Z"
         style="fill:#ffffff;fill-opacity:1;fill-rule:nonzero;stroke:none"
         id="path14" />
      <path
         d="m 601.25,892.18 h 6112.57 c 0,0 148.56,425.45 -275.92,872.19 -424.48,446.74 -476,1513.35 -1824.5,1908.6 -1348.52,395.26 -2480.5,-5.7 -2812.33,-665.11 C 1469.24,2348.45 229.824,2247.49 601.25,892.18"
         style="fill:#fddeb1;fill-opacity:1;fill-rule:nonzero;stroke:none"
         id="path16" />
      <path
         d="m 6713.82,892.18 c 0,0 95.48,273.62 -85.6,612.41 -213.43,-120.79 -446.7,-356.18 -832.53,-419.44 -589.14,-96.591 -901.21,141.33 -1464.29,623.28 -563.08,481.94 -1724.47,-203.02 -1991.09,342.68 -159.3,326.04 -546.77,511.85 -832.92,608.66 C 1031.95,2255.59 305.316,1972.02 601.25,892.18 h 6112.57"
         style="fill:#f4c88d;fill-opacity:1;fill-rule:nonzero;stroke:none"
         id="path18" />
      <path
         d="m 282.887,886.871 h 6728.07 v 10.6094 H 282.887 Z"
         style="fill:#f4c88d;fill-opacity:1;fill-rule:nonzero;stroke:none"
         id="path20" />
      <path
         d="M 3248.19,789.09 H 2019.24 V 2221.73 H 3248.19 V 789.09"
         style="fill:#8d4328;fill-opacity:1;fill-rule:nonzero;stroke:none"
         id="path22" />
      <path
         d="m 3248.19,789.09 h -427.02 v 1432.64 h 427.02 V 789.09"
         style="fill:#ba603e;fill-opacity:1;fill-rule:nonzero;stroke:none"
         id="path24" />
      <path
         d="m 3081.08,2083.09 v 3.94 h -92.81 c -13.11,0.02 -23.71,10.63 -23.74,23.73 v 1.21 h -3.94 v -3.94 h 148.17 v 3.94 h -3.94 v -1.21 c -0.02,-13.1 -10.63,-23.71 -23.74,-23.73 v -3.94 -3.95 c 17.47,0 31.63,14.16 31.63,31.62 v 1.21 3.95 h -156.06 v -5.16 c 0,-17.46 14.15,-31.62 31.62,-31.62 h 92.81 v 3.95"
         style="fill:#713520;fill-opacity:1;fill-rule:nonzero;stroke:none"
         id="path26" />
      <path
         d="m 2019.24,1859.62 h 1228.95 v 7.8906 H 2019.24 Z"
         style="fill:#713520;fill-opacity:1;fill-rule:nonzero;stroke:none"
         id="path28" />
      <path
         d="m 3081.08,1724.92 v 3.95 h -92.81 c -13.1,0.02 -23.71,10.63 -23.74,23.74 v 1.2 h -3.94 v -3.95 h 148.17 v 3.95 h -3.94 v -1.2 c -0.02,-13.11 -10.63,-23.72 -23.74,-23.74 v -3.95 -3.94 c 17.47,0 31.63,14.16 31.63,31.63 v 1.2 3.94 h -156.06 v -5.14 c 0,-17.47 14.15,-31.63 31.62,-31.63 h 92.81 v 3.94"
         style="fill:#713520;fill-opacity:1;fill-rule:nonzero;stroke:none"
         id="path30" />
      <path
         d="m 2019.24,1501.47 h 1228.95 v 7.8828 H 2019.24 Z"
         style="fill:#713520;fill-opacity:1;fill-rule:nonzero;stroke:none"
         id="path32" />
      <path
         d="m 3081.08,1366.77 v 3.94 h -92.81 c -13.11,0.03 -23.71,10.63 -23.74,23.74 v 1.2 h -3.94 v -3.94 h 148.17 v 3.94 h -3.94 v -1.2 c -0.02,-13.11 -10.63,-23.71 -23.74,-23.74 v -3.94 -3.95 c 17.47,0.01 31.63,14.16 31.63,31.63 v 1.2 3.95 h -156.06 v -5.15 c 0,-17.47 14.15,-31.62 31.62,-31.63 h 92.81 v 3.95"
         style="fill:#713520;fill-opacity:1;fill-rule:nonzero;stroke:none"
         id="path34" />
      <path
         d="m 2019.24,1143.31 h 1228.95 v 7.8906 H 2019.24 Z"
         style="fill:#713520;fill-opacity:1;fill-rule:nonzero;stroke:none"
         id="path36" />
      <path
         d="m 3081.08,1008.61 v 3.95 h -92.81 c -13.11,0.02 -23.71,10.63 -23.74,23.73 v 1.2 h -3.94 v -3.94 h 148.17 v 3.94 h -3.94 v -1.2 c -0.02,-13.1 -10.63,-23.71 -23.74,-23.73 v -3.95 -3.94 c 17.47,0 31.63,14.16 31.63,31.62 v 1.2 3.94 h -156.06 v -5.14 c 0,-17.46 14.15,-31.62 31.62,-31.62 h 92.81 v 3.94"
         style="fill:#713520;fill-opacity:1;fill-rule:nonzero;stroke:none"
         id="path38" />
      <path
         d="m 5867.18,3007.86 c 0,-671.41 -544.29,-1215.7 -1215.7,-1215.7 -671.41,0 -1215.7,544.29 -1215.7,1215.7 0,671.41 544.29,1215.7 1215.7,1215.7 671.41,0 1215.7,-544.29 1215.7,-1215.7"
         style="fill:#f68aa2;fill-opacity:1;fill-rule:nonzero;stroke:none"
         id="path40" />
      <path
         d="m 5420.53,2599.2 h 279.52 v 27.3008 h -279.52 z"
         style="fill:#df7381;fill-opacity:1;fill-rule:nonzero;stroke:none"
         id="path42" />
      <path
         d="m 6307.02,2646.65 h 23.5 v 353.152 h -23.5 z"
         style="fill:#c3c5c2;fill-opacity:1;fill-rule:nonzero;stroke:none"
         id="path44" />
      <path
         d="m 5397.03,2626.5 h 909.988 v 400.602 H 5397.03 Z"
         style="fill:#229dc9;fill-opacity:1;fill-rule:nonzero;stroke:none"
         id="path46" />
      <path
         d="m 5507.58,2626.5 h -110.55 v 400.6 h 199.28 l -88.73,-400.6"
         style="fill:#1d84ab;fill-opacity:1;fill-rule:nonzero;stroke:none"
         id="path48" />
      <g
         id="g50"
         transform="scale(10)">
        <text
           xml:space="preserve"
           transform="matrix(1,0,0,-1,559.631,274.98)"
           style="font-variant:normal;font-weight:bold;font-size:30.4161px;font-family:OpenSans;-inkscape-font-specification:OpenSans-Bold;writing-mode:lr-tb;fill:#ffffff;fill-opacity:1;fill-rule:nonzero;stroke:none"
           id="text54"><tspan
             x="0 17.159166 33.798771"
             y="0"
             sodipodi:role="line"
             id="tspan52">css</tspan></text>
      </g>
      <path
         d="m 4810.23,800.992 h -49.15 l -11.09,1269.518 h 71.34 l -11.1,-1269.518"
         style="fill:#ba603e;fill-opacity:1;fill-rule:nonzero;stroke:none"
         id="path56" />
      <path
         d="m 4894.48,1226.48 h -217.64 l 38.49,94.56 h 140.66 l 38.49,-94.56"
         style="fill:#8d4328;fill-opacity:1;fill-rule:nonzero;stroke:none"
         id="path58" />
      <path
         d="m 4894.48,1226.48 h -217.64 l 41.92,-77.58 c 5.43,-10.06 15.94,-16.32 27.36,-16.32 h 79.09 c 11.41,0 21.92,6.26 27.35,16.32 l 41.92,77.58"
         style="fill:#713520;fill-opacity:1;fill-rule:nonzero;stroke:none"
         id="path60" />
      <path
         d="m 5145.87,800.992 h -51.82 l -263.31,520.048 h 37.46 c 25.62,0 48.87,-14.98 59.44,-38.32 l 218.23,-481.728"
         style="fill:#ba603e;fill-opacity:1;fill-rule:nonzero;stroke:none"
         id="path62" />
      <path
         d="m 4425.45,800.992 h 51.82 l 263.31,520.048 h -37.46 c -25.62,0 -48.87,-14.98 -59.44,-38.32 L 4425.45,800.992"
         style="fill:#ba603e;fill-opacity:1;fill-rule:nonzero;stroke:none"
         id="path64" />
      <path
         d="m 4249.59,2037.78 c 0,0 377.18,0 663.71,0 286.52,0 438.63,194.55 498.76,442.17 60.14,247.62 88.44,396.19 120.27,548.3 31.84,152.1 -24.75,373.69 -215.78,373.69 -191.01,0 -219.31,0 -364.34,0 -145.03,0 -223.22,45.29 -290.25,-190.73 -67.03,-236.02 -126.67,-543.77 -167.59,-699.42 -40.93,-155.65 -351.33,-133.54 -461.88,-234.35 -86,-78.43 -89.33,-239.66 217.1,-239.66"
         style="fill:#ffffff;fill-opacity:1;fill-rule:nonzero;stroke:none"
         id="path66" />
      <path
         d="m 5238.73,2797.43 c -34.48,161.84 -87.55,304.11 -95.51,360.32 -7.07,49.94 36.06,172.75 -0.75,244.19 -60.69,0 -105.6,0 -190.26,0 -145.03,0 -223.22,45.29 -290.25,-190.73 -67.03,-236.02 -126.67,-543.77 -167.59,-699.42 -40.93,-155.65 -351.33,-133.54 -461.88,-234.35 -86,-78.43 -89.33,-239.66 217.1,-239.66 0,0 149.95,0 332.56,0 -42,60.51 -82.33,149.46 43.74,149.46 191.01,0 289.18,0 289.18,0 156.52,0 228.15,42.45 286.52,140.61 58.37,98.16 71.63,307.75 37.14,469.58"
         style="fill:#dddedb;fill-opacity:1;fill-rule:nonzero;stroke:none"
         id="path68" />
      <path
         d="m 3601.34,1277.25 c 0,0 -53.04,-314.422 -72.24,-379.691 -8.4,-28.571 -104.16,-87.36 -134.4,-99.129 -30.25,-11.758 -87.37,-13.442 -87.37,-33.598 0,-20.16 144.49,-23.523 215.05,-18.48 70.56,5.039 139.45,-3.36 141.13,20.16 1.68,23.519 -25.2,40.32 -18.49,90.73 6.73,50.399 136.09,420.008 136.09,420.008 h -179.77"
         style="fill:#f2506b;fill-opacity:1;fill-rule:nonzero;stroke:none"
         id="path70" />
      <path
         d="m 4318.05,1277.25 c 0,0 58.19,-302.449 52.91,-379.691 -2.02,-29.707 -104.16,-87.36 -134.41,-99.129 -30.23,-11.758 -87.36,-13.442 -87.36,-33.598 0,-20.16 144.49,-23.523 215.05,-18.48 70.56,5.039 139.44,-3.36 141.12,20.16 1.68,23.519 -14.42,40.027 -18.48,90.73 -4.52,56.547 10.93,420.008 10.93,420.008 h -179.76"
         style="fill:#f2506b;fill-opacity:1;fill-rule:nonzero;stroke:none"
         id="path72" />
      <path
         d="m 4337.03,1172.53 154.05,-71.46 c 3.2,92.97 6.73,176.18 6.73,176.18 h -179.76 c 0,0 8.66,-45.03 18.98,-104.72"
         style="fill:#bf303c;fill-opacity:1;fill-rule:nonzero;stroke:none"
         id="path74" />
      <path
         d="m 3584.24,1178.27 144.35,-53.64 c 28.14,82.95 52.52,152.62 52.52,152.62 h -179.77 c 0,0 -7.13,-42.28 -17.1,-98.98"
         style="fill:#bf303c;fill-opacity:1;fill-rule:nonzero;stroke:none"
         id="path76" />
      <path
         d="m 3972.35,1234.8 h -417.4 c 0,0 162.72,937.41 208.7,1089.51 45.99,152.11 272.28,268.6 887.83,268.72 l -78.08,-289.94 -434.79,-166.26 c 0,0 -61.55,-102.71 -76.76,-222.91 -15.21,-120.22 -11.67,-173.28 -50.58,-233.41 -38.92,-60.14 -7.08,-102.58 -17.69,-187.48 -10.61,-84.9 -21.23,-258.23 -21.23,-258.23"
         style="fill:#1a8f74;fill-opacity:1;fill-rule:nonzero;stroke:none"
         id="path78" />
      <path
         d="m 3786.61,2374.38 c 106.66,21.35 145.08,-90.57 152.14,-269.39 6.25,-158.38 78.61,-270.89 109.38,-311.88 4.27,32.19 7.37,70.59 13.72,120.81 15.21,120.2 76.76,222.91 76.76,222.91 l 434.79,166.26 78.08,289.94 c -545.95,-0.11 -785.55,-91.79 -864.87,-218.65"
         style="fill:#126150;fill-opacity:1;fill-rule:nonzero;stroke:none"
         id="path80" />
      <path
         d="m 3604.47,1319.69 h 318.36 c 2.93,0 5.31,2.38 5.31,5.31 0,2.93 -2.38,5.31 -5.31,5.31 h -318.36 c -2.93,0 -5.3,-2.38 -5.3,-5.31 0,-2.93 2.37,-5.31 5.3,-5.31"
         style="fill:#126150;fill-opacity:1;fill-rule:nonzero;stroke:none"
         id="path82" />
      <path
         d="m 4120.4,2282.22 c -0.21,-0.11 -27.91,-13.51 -59.1,-37.73 -31.15,-24.25 -66,-59.28 -79.86,-103.42 -13.53,-43.44 -22.06,-120.97 -31.04,-197.29 -4.48,-38.12 -9.03,-75.87 -14.27,-108.64 -5.23,-32.74 -11.21,-60.58 -18.24,-78.4 -12.36,-31.43 -15.77,-56.73 -15.76,-80.23 0.03,-27.59 4.53,-52.46 4.51,-82.84 0,-6.07 -0.18,-12.36 -0.6,-18.95 -2.17,-34.04 -11.23,-96.42 -19.73,-150.06 -4.25,-26.84 -8.37,-51.53 -11.42,-69.5 -3.05,-17.98 -5.03,-29.21 -5.04,-29.24 -0.51,-2.88 1.42,-5.64 4.31,-6.15 2.88,-0.5 5.63,1.42 6.14,4.31 0.01,0.02 7.97,45.14 16.49,98.92 8.52,53.8 17.6,116.12 19.84,151.05 0.44,6.82 0.62,13.35 0.62,19.62 -0.02,31.47 -4.53,56.5 -4.5,82.84 0.01,22.48 3.14,46.06 15.02,76.35 7.57,19.31 13.53,47.52 18.83,80.61 7.94,49.59 14.25,110 21.07,165.93 6.79,55.9 14.17,107.45 23.9,138.5 12.67,40.75 45.92,74.7 76.24,98.21 15.14,11.76 29.5,20.93 40.05,27.14 5.27,3.11 9.59,5.47 12.57,7.06 1.5,0.79 2.66,1.38 3.44,1.78 l 1.16,0.58 c 2.63,1.27 3.74,4.44 2.46,7.08 -1.28,2.64 -4.45,3.74 -7.09,2.47"
         style="fill:#126150;fill-opacity:1;fill-rule:nonzero;stroke:none"
         id="path84" />
      <path
         d="m 4158.07,3320.08 -139.73,-523.53 -580.12,-139.73 h 655.85 c 62.7,0 118.55,39.63 139.26,98.8 l 151.13,431.81 c 0,0 -118.5,160.95 -226.39,132.65"
         style="fill:#d3414f;fill-opacity:1;fill-rule:nonzero;stroke:none"
         id="path86" />
      <path
         d="m 4384.46,3187.43 c 0,0 -118.5,160.95 -226.39,132.65 l -43.34,-162.4 c 10.83,-11.32 25.8,-20.86 46.88,-25.6 66.29,-14.92 88.62,-158.04 129.86,-210.34 l 92.99,265.69"
         style="fill:#bf303c;fill-opacity:1;fill-rule:nonzero;stroke:none"
         id="path88" />
      <path
         d="m 4613.4,3672.97 c 0,0 176.97,-37.18 272.48,-82.28 95.51,-45.1 124.7,-153.88 149.9,-323.67 l -186.15,-10.61 c 0,0 86.66,-341.36 129.11,-463.4 42.44,-122.04 132.65,-183.94 70.74,-196.33 -61.9,-12.37 -569.51,0 -652.63,0 -83.14,0 22.98,120.28 33.6,191.03 10.6,70.74 -5.31,194.55 -45.99,245.84 -40.68,51.29 -93.74,33.61 -84.9,192.79 l -176.85,72.51 c 0,0 61.89,178.64 178.62,263.54 116.74,84.9 197.88,104.44 312.07,110.58"
         style="fill:#507f94;fill-opacity:1;fill-rule:nonzero;stroke:none"
         id="path90" />
      <path
         d="m 4978.74,2793.01 c -42.45,122.04 -129.11,463.4 -129.11,463.4 l 49.06,2.79 -211.79,-11.44 18.8,106.74 c 0,0 -47.1,-114.01 -57.7,-230.75 -9.49,-104.42 -145.45,-178.77 -215.31,-258.17 1.79,-28.58 1.07,-55.81 -2.24,-77.87 -10.62,-70.75 -116.74,-191.02 -33.6,-191.02 83.12,0 590.73,-12.38 652.63,0 61.91,12.38 -28.3,74.28 -70.74,196.32"
         style="fill:#213643;fill-opacity:1;fill-rule:nonzero;stroke:none"
         id="path92" />
      <path
         d="M 4994.59,3264.67 4848.9,2792.13 c -24.81,-80.44 -99.14,-135.31 -183.31,-135.31 h -742.76 c 0,0 19.46,63.67 72.52,68.98 53.06,5.31 65.44,-5.31 102.58,-7.07 37.15,-1.77 498.7,107.75 498.7,107.75 l 127.86,421.28 270.1,16.91"
         style="fill:#f2506b;fill-opacity:1;fill-rule:nonzero;stroke:none"
         id="path94" />
      <path
         d="m 4232.35,3253.9 67.21,-27.56 c 7.07,56.51 31.92,118.94 31.84,164.49 -0.06,31.88 -22.99,-9.25 -53.06,-67.41 -14.8,-28.63 -32.16,-52.57 -45.99,-69.52"
         style="fill:#213643;fill-opacity:1;fill-rule:nonzero;stroke:none"
         id="path96" />
      <path
         d="m 4724.49,3253.07 h -37.59 v -5.31 l 5.3,-0.34 c 0,0.01 0.09,1.44 0.32,4.15 0.8,9.48 3.23,34.14 8.85,62.6 5.61,28.46 14.48,60.75 27.79,85.24 1.39,2.57 0.44,5.8 -2.14,7.19 -2.57,1.4 -5.79,0.44 -7.19,-2.13 -16.18,-29.87 -25.58,-68.79 -31.13,-100.4 -5.52,-31.6 -7.08,-55.84 -7.09,-55.97 -0.09,-1.45 0.43,-2.9 1.42,-3.97 1,-1.06 2.42,-1.67 3.87,-1.67 h 37.59 c 2.93,0 5.31,2.37 5.31,5.3 0,2.93 -2.38,5.31 -5.31,5.31"
         style="fill:#213643;fill-opacity:1;fill-rule:nonzero;stroke:none"
         id="path98" />
      <path
         d="m 5021.18,2646.21 c 0,0 198.99,-458.97 -106.11,-458.97 -305.1,0 -440.4,0 -440.4,0 0,0 15.12,-71.35 -1.67,-130.87 -7.34,-25.99 -8.26,-53.36 -0.6,-79.26 21.11,-71.24 60.54,-208.19 73.9,-280.68 18.56,-100.81 36.99,-122.05 50.33,-212.24 13.34,-90.21 71.7,-156.53 53.14,-249.39 h -458.98 c 0,0 -95.51,623.46 -124.7,883.46 -29.18,259.99 92.87,448.36 339.59,448.36 0,0 291.84,39.8 331.63,58.37 l 283.87,21.22"
         style="fill:#1a8f74;fill-opacity:1;fill-rule:nonzero;stroke:none"
         id="path100" />
      <path
         d="m 4219.04,1319.69 h 388.27 c 2.93,0 5.31,2.38 5.31,5.31 0,2.93 -2.38,5.31 -5.31,5.31 h -388.27 c -2.93,0 -5.3,-2.38 -5.3,-5.31 0,-2.93 2.37,-5.31 5.3,-5.31"
         style="fill:#126150;fill-opacity:1;fill-rule:nonzero;stroke:none"
         id="path102" />
      <path
         d="m 4490.58,1325 c -0.02,0.16 0.04,130.15 -16,218.5 -15.91,87.46 -31.82,187.95 -42.44,250.49 -10.54,62.04 -18.52,168.2 -26.48,245.23 -1.59,15.35 -2.25,29.73 -2.25,43.65 -0.03,54.96 10.42,103.27 15.07,175.66 l -5.3,0.34 1.06,-5.2 c 25.33,5.18 62.75,7.53 105.79,8.6 64.61,1.61 142.02,0.43 212.1,2.33 35.04,0.95 68.25,2.67 97.19,5.92 28.95,3.26 53.59,7.99 71.8,15.26 46.35,18.56 87.73,33.84 120.67,54.84 32.91,20.94 57.4,48.16 68.28,89.34 0.75,2.83 -0.93,5.73 -3.77,6.49 -2.83,0.75 -5.73,-0.94 -6.49,-3.77 -10.27,-38.41 -32.25,-62.93 -63.73,-83.11 -31.46,-20.12 -72.4,-35.35 -118.9,-53.94 -22.17,-8.9 -57.37,-14.27 -98.91,-17.29 -62.37,-4.58 -139.18,-4.16 -210.17,-4.56 -71.04,-0.43 -136.07,-1.6 -175.98,-9.71 -2.34,-0.48 -4.08,-2.48 -4.23,-4.86 -4.56,-71.58 -15.07,-119.92 -15.09,-176.34 0,-14.26 0.68,-29.02 2.3,-44.74 7.96,-76.86 15.9,-182.95 26.57,-245.91 10.61,-62.44 26.53,-162.99 42.46,-250.62 7.89,-43.34 11.87,-97.59 13.85,-140.9 1,-21.66 1.49,-40.6 1.74,-54.12 0.25,-13.51 0.25,-21.56 0.25,-21.58 0,-2.93 2.37,-5.31 5.3,-5.31 2.93,0 5.31,2.38 5.31,5.31"
         style="fill:#126150;fill-opacity:1;fill-rule:nonzero;stroke:none"
         id="path104" />
      <path
         d="m 4708.59,3195.38 c 47.37,4.65 163.11,9.68 253.03,-37.63 l 32.97,106.92 -270.1,-16.91 -15.9,-52.38"
         style="fill:#bf303c;fill-opacity:1;fill-rule:nonzero;stroke:none"
         id="path106" />
      <path
         d="m 3492.06,857.699 c -32.88,-25.539 -78.22,-51.828 -97.36,-59.269 -30.25,-11.758 -87.37,-13.442 -87.37,-33.598 0,-20.16 144.49,-23.523 215.05,-18.48 70.56,5.039 139.45,-3.36 141.13,20.16 1.37,19.289 -16.43,34.09 -19.18,66.578 -18.24,-0.879 -40.45,-1.59 -67.35,-1.899 -50.31,-0.582 -73.98,12.411 -84.92,26.508"
         style="fill:#3b7767;fill-opacity:1;fill-rule:nonzero;stroke:none"
         id="path108" />
      <path
         d="m 4333.92,857.699 c -32.88,-25.539 -78.23,-51.828 -97.37,-59.269 -30.23,-11.758 -87.36,-13.442 -87.36,-33.598 0,-20.16 144.49,-23.523 215.05,-18.48 70.56,5.039 139.44,-3.36 141.12,20.16 1.38,19.289 -16.41,34.09 -19.17,66.578 -18.24,-0.879 -40.46,-1.59 -67.35,-1.899 -50.3,-0.582 -73.98,12.411 -84.92,26.508"
         style="fill:#3b7767;fill-opacity:1;fill-rule:nonzero;stroke:none"
         id="path110" />
      <path
         d="m 4358.56,3779.7 c 11.98,-27.18 13.3,-46.41 31.21,-64.32 10.99,-10.99 29.47,-19.23 42.11,-23.96 8.35,-3.12 17.64,-2.5 25.59,1.54 l 14.96,7.62 21.94,-59.48 -33.21,-14.23 c -30.38,-13.02 -53.88,-38.17 -64.65,-69.43 -23.82,-69.18 -27.79,-184.96 85.23,-184.96 136.83,0 216.88,139.11 256.27,219.28 8.25,16.8 -1.84,36.86 -20.29,40.08 -32.04,5.58 -76.26,18.78 -90.5,49.71 -23.23,50.41 -41.13,102.81 -41.13,102.81 0,0 5.97,104.79 -0.66,136.63 -6.63,31.83 -48.42,110.76 -131.33,88.87 -82.91,-21.88 -148.83,-84.5 -136.63,-165.81 1.99,-13.26 41.09,-64.35 41.09,-64.35"
         style="fill:#f2506b;fill-opacity:1;fill-rule:nonzero;stroke:none"
         id="path112" />
      <path
         d="m 4490.62,3639.76 14.79,-41.14 c 0.74,-2.06 3.02,-3.14 5.09,-2.39 2.06,0.74 3.14,3.02 2.4,5.09 l -14.79,41.13 c -0.74,2.07 -3.02,3.14 -5.09,2.4 -2.07,-0.74 -3.14,-3.02 -2.4,-5.09"
         style="fill:#bf303c;fill-opacity:1;fill-rule:nonzero;stroke:none"
         id="path114" />
      <path
         d="m 4482.61,3672.97 c 30.06,0.05 42.46,63.63 52.01,79.11 9.55,15.47 1.06,24.76 -6.02,13.27 -7.07,-11.5 -27.41,-49.53 -56.17,-64.77 l 10.18,-27.61"
         style="fill:#bf303c;fill-opacity:1;fill-rule:nonzero;stroke:none"
         id="path116" />
      <path
         d="m 4466.71,3980.68 c 0,0 5.48,-45.65 41.11,-90.2 10.62,-13.27 9.29,-68.98 26.54,-75.61 17.24,-6.64 -2.66,27.85 7.95,51.73 10.62,23.88 34.5,13.27 34.5,-13.27 0,-26.52 -13.27,-54.38 -13.27,-54.38 l 22.55,-14.59 c 0,0 10.61,58.36 25.21,126.02 14.59,67.65 -47.76,139.28 -157.86,126.01 0,0 -140.61,66.33 -197.65,-70.3 -57.04,-136.63 49.08,-152.55 49.08,-152.55 l 55.05,-37.14 -17.5,42.76 c -6.9,16.88 -0.75,36.21 14.64,46.01 34.11,21.71 90.66,63.99 109.65,115.51"
         style="fill:#86202c;fill-opacity:1;fill-rule:nonzero;stroke:none"
         id="path118" />
      <path
         d="m 4648.35,4092.8 c 0,-49.78 -40.36,-90.13 -90.14,-90.13 -49.78,0 -90.13,40.35 -90.13,90.13 0,49.78 40.35,90.13 90.13,90.13 49.78,0 90.14,-40.35 90.14,-90.13"
         style="fill:#86202c;fill-opacity:1;fill-rule:nonzero;stroke:none"
         id="path120" />
      <path
         d="m 5297.1,2556.01 v 3.78 H 4236.13 v 93.25 h 1057.19 v -97.03 h 3.78 v 3.78 -3.78 h 3.78 V 2660.6 H 4228.57 v -108.37 h 1072.31 v 3.78 h -3.78"
         style="fill:#244079;fill-opacity:1;fill-rule:nonzero;stroke:none"
         id="path122" />
      <path
         d="M 4464.45,2656.82 H 2932.37 v 32.39 h 1532.08 v -32.39"
         style="fill:#dddedb;fill-opacity:1;fill-rule:nonzero;stroke:none"
         id="path124" />
      <path
         d="m 3880.96,2656.82 h -981.94 l -154.13,702.08 h 981.94 l 154.13,-702.08"
         style="fill:#ffffff;fill-opacity:1;fill-rule:nonzero;stroke:none"
         id="path126" />
      <path
         d="m 3880.96,2656.82 h -36.02 l -154.12,702.08 h 36.01 l 154.13,-702.08"
         style="fill:#dddedb;fill-opacity:1;fill-rule:nonzero;stroke:none"
         id="path128" />
      <path
         d="m 3378.79,3007.86 c 11.16,-50.85 -21.02,-92.08 -71.87,-92.08 -50.86,0 -101.13,41.23 -112.3,92.08 -11.16,50.86 21.01,92.08 71.87,92.08 50.85,0 101.13,-41.22 112.3,-92.08"
         style="fill:#f78d17;fill-opacity:1;fill-rule:nonzero;stroke:none"
         id="path130" />
      <path
         d="m 2366.22,2960.09 c 0,0 -62.96,44.16 -27.8,103.04 35.16,58.89 178.69,38.65 186.05,84.65 7.37,46 -153.65,42.32 -274.18,40.49 -120.53,-1.84 -168.37,9.88 -168.37,40.25 0,35.65 45.68,32.94 44.17,77.23 -1.85,53.88 -278.79,25.12 -278.79,25.12 0,0 56.87,19.61 163.77,27.38 79.13,5.75 213.46,14.95 220.82,-47.62 7.36,-62.56 58.89,-55.2 162.86,-62.56 103.96,-7.36 196.89,-37.72 189.53,-134.33 -7.36,-96.61 -197.48,-31.59 -219.9,-80.05 -22.42,-48.46 45.08,-73.6 45.08,-73.6 h -43.24"
         style="fill:#ffffff;fill-opacity:1;fill-rule:nonzero;stroke:none"
         id="path132" />
      <path
         d="m 2216,2980.49 23.33,-288.87 c 1.59,-19.66 18,-34.8 37.73,-34.8 h 63.25 63.25 c 19.72,0 36.13,15.14 37.72,34.8 l 23.34,288.87 H 2216"
         style="fill:#f78d17;fill-opacity:1;fill-rule:nonzero;stroke:none"
         id="path134" />
      <path
         d="m 5852.02,3610.59 h -144.53 c -149.83,261.93 -394.31,462.77 -686.82,555.9 v 26.55 h 831.35 v -582.45"
         style="fill:#c3c5c2;fill-opacity:1;fill-rule:nonzero;stroke:none"
         id="path136" />
      <path
         d="m 5707.49,3610.59 h -686.82 v 101.68 h -206.86 l 206.86,134.23 v 319.99 c 292.51,-93.13 536.99,-293.97 686.82,-555.9"
         style="fill:#df7381;fill-opacity:1;fill-rule:nonzero;stroke:none"
         id="path138" />
      <path
         d="m 4994.59,4223.56 v -346.54 l -206.87,-134.23 h 206.87 V 3641.1 h 831.35 v 582.46 h -831.35"
         style="fill:#f2506b;fill-opacity:1;fill-rule:nonzero;stroke:none"
         id="path140" />
      <g
         id="g142"
         transform="scale(10)">
        <text
           xml:space="preserve"
           transform="matrix(1,0,0,-1,511.533,381.155)"
           style="font-variant:normal;font-weight:bold;font-size:35.7718px;font-family:OpenSans;-inkscape-font-specification:OpenSans-Bold;writing-mode:lr-tb;fill:#ffffff;fill-opacity:1;fill-rule:nonzero;stroke:none"
           id="text146"><tspan
             x="0 22.206997 38.772449"
             y="0"
             sodipodi:role="line"
             id="tspan144">&lt;/&gt;</tspan></text>
      </g>
      <path
         d="m 6462.32,2246.04 h -324.4 c -56.38,112.55 -115.01,232.1 -183.21,353.16 h 375.81 v 47.45 h 131.8 v -400.61"
         style="fill:#c3c5c2;fill-opacity:1;fill-rule:nonzero;stroke:none"
         id="path148" />
      <path
         d="m 6137.92,2246.04 h -437.87 v 146.27 c 38.41,65.29 70.91,134.54 96.74,206.89 h 157.92 c 68.2,-121.06 126.83,-240.61 183.21,-353.16"
         style="fill:#c2ac8c;fill-opacity:1;fill-rule:nonzero;stroke:none"
         id="path150" />
      <path
         d="m 5700.05,2392.31 v 206.89 h 96.74 c -25.83,-72.35 -58.33,-141.6 -96.74,-206.89"
         style="fill:#df7381;fill-opacity:1;fill-rule:nonzero;stroke:none"
         id="path152" />
      <path
         d="m 6330.52,2599.2 h -375.81 c -5.13,9.1 -10.29,18.18 -15.53,27.3 h 367.84 v 20.15 h 23.5 v -47.45"
         style="fill:#969898;fill-opacity:1;fill-rule:nonzero;stroke:none"
         id="path154" />
      <path
         d="m 5954.71,2599.2 h -157.92 c 3.23,9.05 6.35,18.15 9.37,27.3 h 133.02 c 5.24,-9.12 10.4,-18.2 15.53,-27.3"
         style="fill:#958570;fill-opacity:1;fill-rule:nonzero;stroke:none"
         id="path156" />
      <path
         d="m 5796.79,2599.2 h -96.74 v 27.3 h 106.11 c -3.02,-9.15 -6.14,-18.25 -9.37,-27.3"
         style="fill:#ab5b66;fill-opacity:1;fill-rule:nonzero;stroke:none"
         id="path158" />
      <path
         d="m 6307.02,2626.5 h -606.97 v 20.15 h 606.97 v -20.15"
         style="fill:#1b7ba1;fill-opacity:1;fill-rule:nonzero;stroke:none"
         id="path160" />
      <path
         d="m 6433.13,2277.88 h -762.27 v 400.61 h 762.27 v -400.61"
         style="fill:#f2506b;fill-opacity:1;fill-rule:nonzero;stroke:none"
         id="path162" />
      <g
         id="g164"
         transform="scale(10)">
        <text
           xml:space="preserve"
           transform="matrix(1,0,0,-1,579.57,243.082)"
           style="font-variant:normal;font-weight:bold;font-size:16.7954px;font-family:OpenSans;-inkscape-font-specification:OpenSans-Bold;writing-mode:lr-tb;fill:#ffffff;fill-opacity:1;fill-rule:nonzero;stroke:none"
           id="text168"><tspan
             x="0 13.690375 24.256807 40.932663"
             y="0"
             sodipodi:role="line"
             id="tspan166">HTML</tspan></text>
      </g>
      <path
         d="m 5774.47,1557.17 c -76.02,0 -137.65,61.63 -137.65,137.65 0,76.03 61.63,137.66 137.65,137.66 76.03,0 137.66,-61.63 137.66,-137.66 0,-76.02 -61.63,-137.65 -137.66,-137.65 z m 379.52,75.33 c 3.31,20.29 5.11,41.1 5.11,62.32 0,21.23 -1.8,42.04 -5.11,62.33 h -106.88 c -7.08,31.08 -19.32,60.19 -35.79,86.38 l 75.55,75.55 c -24.42,33.94 -54.2,63.72 -88.14,88.14 l -75.56,-75.55 c -26.18,16.47 -55.29,28.71 -86.37,35.79 v 106.89 c -20.3,3.31 -41.1,5.1 -62.33,5.1 -21.23,0 -42.03,-1.79 -62.32,-5.1 v -106.89 c -31.09,-7.08 -60.19,-19.32 -86.38,-35.79 l -75.55,75.55 c -33.94,-24.42 -63.73,-54.2 -88.14,-88.14 l 75.56,-75.55 c -16.49,-26.19 -28.71,-55.3 -35.79,-86.38 h -106.9 c -3.31,-20.29 -5.1,-41.1 -5.1,-62.33 0,-21.22 1.79,-42.03 5.1,-62.32 h 106.9 c 7.08,-31.08 19.3,-60.19 35.79,-86.38 l -75.56,-75.54 c 24.41,-33.95 54.2,-63.73 88.14,-88.14 l 75.55,75.55 c 26.19,-16.49 55.29,-28.71 86.38,-35.79 v -106.9 c 20.29,-3.31 41.09,-5.09 62.32,-5.09 21.23,0 42.03,1.78 62.33,5.09 v 106.9 c 31.08,7.08 60.19,19.3 86.37,35.79 l 75.56,-75.55 c 33.94,24.41 63.72,54.19 88.14,88.14 l -75.55,75.54 c 16.47,26.19 28.71,55.3 35.79,86.38 h 106.88"
         style="fill:#3e3f42;fill-opacity:1;fill-rule:nonzero;stroke:none"
         id="path170" />
      <path
         d="m 6309.14,1286.04 c -47.7,-3.99 -89.62,31.44 -93.62,79.15 -4.01,47.7 31.42,89.61 79.13,93.62 47.7,3.99 89.62,-31.44 93.62,-79.14 4.01,-47.71 -31.42,-89.62 -79.13,-93.63 z m 234.18,67.25 c 1.01,12.91 1.04,26.06 -0.09,39.38 -1.11,13.32 -3.33,26.28 -6.47,38.83 l -67.07,-5.62 c -6.09,19.14 -15.3,36.76 -27.01,52.32 l 43.43,51.38 c -17.11,20.02 -37.36,37.14 -59.95,50.66 l -43.43,-51.37 c -17.29,8.96 -36.2,15.1 -56.08,17.91 l -5.62,67.07 c -12.91,1 -26.06,1.04 -39.38,-0.08 -13.32,-1.11 -26.28,-3.34 -38.84,-6.48 l 5.63,-67.08 c -19.13,-6.07 -36.75,-15.28 -52.32,-27 l -51.38,43.43 c -20.01,-17.1 -37.14,-37.35 -50.67,-59.94 l 51.38,-43.43 c -8.96,-17.3 -15.1,-36.21 -17.91,-56.08 l -67.07,-5.63 c -1.01,-12.91 -1.04,-26.05 0.08,-39.37 1.12,-13.32 3.34,-26.28 6.48,-38.84 l 67.07,5.62 c 6.08,-19.13 15.28,-36.75 27,-52.32 l -43.42,-51.38 c 17.1,-20.02 37.36,-37.14 59.94,-50.66 l 43.42,51.38 c 17.31,-8.97 36.22,-15.11 56.1,-17.91 l 5.62,-67.07 c 12.9,-1.01 26.06,-1.05 39.38,0.07 13.32,1.12 26.28,3.34 38.84,6.49 l -5.63,67.07 c 19.13,6.07 36.75,15.28 52.32,27 l 51.37,-43.43 c 20.02,17.1 37.14,37.36 50.68,59.94 l -51.39,43.43 c 8.96,17.31 15.11,36.21 17.91,56.09 l 67.08,5.62"
         style="fill:#6d7173;fill-opacity:1;fill-rule:nonzero;stroke:none"
         id="path172" />
      <path
         d="m 2669.37,3687.74 c -0.96,5.49 -1.46,11.14 -1.46,16.91 v 692.72 c 0,53.77 43.58,97.36 97.35,97.36 h 1183.19 c 53.77,0 97.36,-43.59 97.36,-97.36 v -335.19 c -110.37,-63.55 -209.86,-143.94 -294.88,-237.65 -62.04,3.41 -123.15,5.08 -183.33,5.08 -333.47,0 -637.14,-51.25 -898.23,-141.87"
         style="fill:#c3c5c2;fill-opacity:1;fill-rule:nonzero;stroke:none"
         id="path174" />
      <path
         d="m 3356.86,3458.1 c -4.04,0 -8.07,2.09 -10.17,6.27 l -59.68,118.8 c -7.43,14.79 -22.57,24.12 -39.13,24.12 h -482.62 c -48,0 -87.88,34.74 -95.89,80.45 261.09,90.62 564.76,141.87 898.23,141.87 60.18,0 121.29,-1.67 183.33,-5.08 -60.04,-66.17 -112.91,-139.01 -157.33,-217.24 h -127.77 c -16.56,0 -31.7,-9.33 -39.13,-24.12 l -59.68,-118.8 c -2.1,-4.18 -6.13,-6.27 -10.16,-6.27"
         style="fill:#c2ac8c;fill-opacity:1;fill-rule:nonzero;stroke:none"
         id="path176" />
      <path
         d="M 3948.45,3607.29 H 3593.6 c 44.42,78.23 97.29,151.07 157.33,217.24 85.02,93.71 184.51,174.1 294.88,237.65 v -357.53 c 0,-53.77 -43.59,-97.36 -97.36,-97.36"
         style="fill:#df7381;fill-opacity:1;fill-rule:nonzero;stroke:none"
         id="path178" />
      <path
         d="M 3927.18,4534.59 H 2743.99 c -53.77,0 -97.36,-43.59 -97.36,-97.36 v -692.72 c 0,-53.77 43.59,-97.36 97.36,-97.36 h 482.62 c 16.56,0 31.7,-9.33 39.13,-24.12 l 59.68,-118.8 c 4.2,-8.36 16.13,-8.36 20.33,0 l 59.68,118.8 c 7.43,14.79 22.57,24.12 39.13,24.12 h 482.62 c 53.77,0 97.35,43.59 97.35,97.36 v 692.72 c 0,53.77 -43.58,97.36 -97.35,97.36"
         style="fill:#213643;fill-opacity:1;fill-rule:nonzero;stroke:none"
         id="path180" />
      <path
         d="m 3153.46,4355.94 h -318.92 c -10.44,0 -18.9,8.46 -18.9,18.9 0,10.44 8.46,18.9 18.9,18.9 h 318.92 c 10.44,0 18.9,-8.46 18.9,-18.9 0,-10.44 -8.46,-18.9 -18.9,-18.9"
         style="fill:#f78d17;fill-opacity:1;fill-rule:nonzero;stroke:none"
         id="path182" />
      <path
         d="m 3288.32,4269.93 h -453.78 c -10.44,0 -18.9,8.46 -18.9,18.9 0,10.44 8.46,18.9 18.9,18.9 h 453.78 c 10.43,0 18.9,-8.46 18.9,-18.9 0,-10.44 -8.47,-18.9 -18.9,-18.9"
         style="fill:#ffffff;fill-opacity:1;fill-rule:nonzero;stroke:none"
         id="path184" />
      <path
         d="m 3820.37,4355.94 h -583.78 c -10.43,0 -18.89,8.46 -18.89,18.9 0,10.44 8.46,18.9 18.89,18.9 h 583.78 c 10.44,0 18.9,-8.46 18.9,-18.9 0,-10.44 -8.46,-18.9 -18.9,-18.9"
         style="fill:#229dc9;fill-opacity:1;fill-rule:nonzero;stroke:none"
         id="path186" />
      <path
         d="m 3820.37,4269.93 h -453.78 c -10.44,0 -18.89,8.46 -18.89,18.9 0,10.44 8.45,18.9 18.89,18.9 h 453.78 c 10.44,0 18.9,-8.46 18.9,-18.9 0,-10.44 -8.46,-18.9 -18.9,-18.9"
         style="fill:#ffffff;fill-opacity:1;fill-rule:nonzero;stroke:none"
         id="path188" />
      <path
         d="m 3519.64,4204.03 h -695.16 c -4.88,0 -8.84,3.96 -8.84,8.85 0,4.88 3.96,8.84 8.84,8.84 h 695.16 c 4.89,0 8.85,-3.96 8.85,-8.84 0,-4.89 -3.96,-8.85 -8.85,-8.85"
         style="fill:#f2506b;fill-opacity:1;fill-rule:nonzero;stroke:none"
         id="path190" />
      <path
         d="m 3376.31,4043.53 h -541.77 c -10.44,0 -18.9,8.46 -18.9,18.9 0,10.44 8.46,18.89 18.9,18.89 h 541.77 c 10.44,0 18.9,-8.45 18.9,-18.89 0,-10.44 -8.46,-18.9 -18.9,-18.9"
         style="fill:#f78d17;fill-opacity:1;fill-rule:nonzero;stroke:none"
         id="path192" />
      <path
         d="m 3153.46,3957.52 h -318.92 c -10.44,0 -18.9,8.46 -18.9,18.9 0,10.44 8.46,18.89 18.9,18.89 h 318.92 c 10.44,0 18.9,-8.45 18.9,-18.89 0,-10.44 -8.46,-18.9 -18.9,-18.9"
         style="fill:#f78d17;fill-opacity:1;fill-rule:nonzero;stroke:none"
         id="path194" />
      <path
         d="m 3288.32,3871.51 h -453.78 c -10.44,0 -18.9,8.46 -18.9,18.9 0,10.43 8.46,18.89 18.9,18.89 h 453.78 c 10.43,0 18.9,-8.46 18.9,-18.89 0,-10.44 -8.47,-18.9 -18.9,-18.9"
         style="fill:#ffffff;fill-opacity:1;fill-rule:nonzero;stroke:none"
         id="path196" />
      <path
         d="m 3820.37,3957.52 h -583.78 c -10.43,0 -18.89,8.46 -18.89,18.9 0,10.44 8.46,18.89 18.89,18.89 h 583.78 c 10.44,0 18.9,-8.45 18.9,-18.89 0,-10.44 -8.46,-18.9 -18.9,-18.9"
         style="fill:#229dc9;fill-opacity:1;fill-rule:nonzero;stroke:none"
         id="path198" />
      <path
         d="m 3820.37,3871.51 h -453.78 c -10.44,0 -18.89,8.46 -18.89,18.9 0,10.43 8.45,18.89 18.89,18.89 h 453.78 c 10.44,0 18.9,-8.46 18.9,-18.89 0,-10.44 -8.46,-18.9 -18.9,-18.9"
         style="fill:#ffffff;fill-opacity:1;fill-rule:nonzero;stroke:none"
         id="path200" />
      <path
         d="m 3519.64,3805.61 h -695.16 c -4.88,0 -8.84,3.96 -8.84,8.84 0,4.89 3.96,8.84 8.84,8.84 h 695.16 c 4.89,0 8.85,-3.95 8.85,-8.84 0,-4.88 -3.96,-8.84 -8.85,-8.84"
         style="fill:#f2506b;fill-opacity:1;fill-rule:nonzero;stroke:none"
         id="path202" />
      <path
         d="M 5297.1,2556.01 H 2044.49 v 100.81 H 5297.1 v -100.81"
         style="fill:#53778c;fill-opacity:1;fill-rule:nonzero;stroke:none"
         id="path204" />
      <path
         d="m 4442.44,629.91 h -77.17 v 1926.1 h 77.17 V 629.91"
         style="fill:#53778c;fill-opacity:1;fill-rule:nonzero;stroke:none"
         id="path206" />
      <path
         d="m 5374.28,629.91 h -77.18 l -250.75,1926.1 h 77.18 l 250.75,-1926.1"
         style="fill:#53778c;fill-opacity:1;fill-rule:nonzero;stroke:none"
         id="path208" />
      <path
         d="m 4442.45,2401.56 v 154.45 h -77.18 v -144.17 l 77.18,-10.28"
         style="fill:#213643;fill-opacity:1;fill-rule:nonzero;stroke:none"
         id="path210" />
      <path
         d="m 5123.53,2556.01 h -77.18 l 31.12,-239.04 78.54,-10.46 -32.48,249.5"
         style="fill:#213643;fill-opacity:1;fill-rule:nonzero;stroke:none"
         id="path212" />
      <path
         d="m 2254.58,629.91 h -77.17 v 1926.1 h 77.17 V 629.91"
         style="fill:#53778c;fill-opacity:1;fill-rule:nonzero;stroke:none"
         id="path214" />
      <path
         d="m 3186.41,629.91 h -77.17 l -250.75,1926.1 h 77.17 l 250.75,-1926.1"
         style="fill:#53778c;fill-opacity:1;fill-rule:nonzero;stroke:none"
         id="path216" />
      <path
         d="m 2254.58,2401.56 v 154.45 h -77.17 v -144.17 l 77.17,-10.28"
         style="fill:#213643;fill-opacity:1;fill-rule:nonzero;stroke:none"
         id="path218" />
      <path
         d="m 2935.66,2556.01 h -77.17 l 31.11,-239.04 78.54,-10.46 -32.48,249.5"
         style="fill:#213643;fill-opacity:1;fill-rule:nonzero;stroke:none"
         id="path220" />
      <path
         d="m 2092.25,624.609 h 249.379 v 10.6094 H 2092.25 Z"
         style="fill:#53778c;fill-opacity:1;fill-rule:nonzero;stroke:none"
         id="path222" />
      <path
         d="m 3022.45,624.609 h 249.383 v 10.6094 H 3022.45 Z"
         style="fill:#53778c;fill-opacity:1;fill-rule:nonzero;stroke:none"
         id="path224" />
      <path
         d="m 4272.67,624.609 h 249.379 v 10.6094 H 4272.67 Z"
         style="fill:#53778c;fill-opacity:1;fill-rule:nonzero;stroke:none"
         id="path226" />
      <path
         d="m 5202.86,624.609 h 249.391 v 10.6094 H 5202.86 Z"
         style="fill:#53778c;fill-opacity:1;fill-rule:nonzero;stroke:none"
         id="path228" />
      <path
         d="m 1167.76,1558.13 c 0,0 -8.65,216.12 -134.59,331.08 -125.94,114.97 -272.74,145.04 -336.412,45.99 -63.672,-99.05 31.836,-196.32 125.578,-284.76 93.738,-88.43 312.364,-90.87 345.424,-92.31"
         style="fill:#879c3a;fill-opacity:1;fill-rule:nonzero;stroke:none"
         id="path230" />
      <path
         d="m 1179.9,1934.28 c 0,0 -231.99,147.72 -318.654,331.67 -86.668,183.93 40.68,320.12 113.192,340.47 72.522,20.33 228.162,-2.04 275.922,-204.86 47.75,-202.83 -70.46,-467.28 -70.46,-467.28"
         style="fill:#3b7767;fill-opacity:1;fill-rule:nonzero;stroke:none"
         id="path232" />
      <path
         d="m 1536.53,2167.18 c 0,0 -66.3,129.99 -95.48,307.74 -29.18,177.75 68.97,429.79 302.44,397.96 233.47,-31.84 166.2,-321.66 55.71,-451.02 -76.29,-89.34 -262.67,-254.68 -262.67,-254.68"
         style="fill:#879c3a;fill-opacity:1;fill-rule:nonzero;stroke:none"
         id="path234" />
      <path
         d="m 1710.06,2851.68 c -0.04,-0.19 -279.2,-912.82 -329.19,-1585.9 l 10.58,-0.78 c 24.9,335.52 107.08,731.53 183.06,1043.54 37.98,156.01 74.41,291.04 101.34,387.05 13.47,48.01 24.56,86.26 32.28,112.51 3.86,13.13 6.88,23.25 8.94,30.09 2.05,6.84 3.13,10.38 3.14,10.39 l -10.15,3.1"
         style="fill:#213643;fill-opacity:1;fill-rule:nonzero;stroke:none"
         id="path236" />
      <path
         d="m 1298.39,1724.92 c 0,0 -21.72,143.38 43.72,297.26 65.44,153.87 192.78,168.03 254.69,137.96 61.9,-30.07 49.52,-171.57 -17.69,-272.39 -67.21,-100.81 -190.88,-142.54 -280.72,-162.83"
         style="fill:#50a288;fill-opacity:1;fill-rule:nonzero;stroke:none"
         id="path238" />
      <path
         d="m 1300.2,1277.91 c -0.01,0.07 -23.02,183.21 -67.26,421.25 -44.26,238.06 -109.7,530.95 -194.82,750.87 l -9.9,-3.83 c 84.68,-218.72 150.11,-511.26 194.29,-748.98 22.09,-118.86 38.88,-224.04 50.15,-299.49 5.63,-37.73 9.89,-68.02 12.73,-88.88 2.84,-20.86 4.27,-32.23 4.28,-32.26 l 10.53,1.32"
         style="fill:#213643;fill-opacity:1;fill-rule:nonzero;stroke:none"
         id="path240" />
      <path
         d="m 838.277,1814.84 c 0.243,-0.22 177.173,-189.42 420.543,-314.15 l 4.84,9.44 c -120.69,61.84 -225.18,139.88 -299.441,202.44 -37.129,31.28 -66.707,58.69 -86.985,78.26 -10.14,9.79 -17.953,17.62 -23.226,23 -2.641,2.68 -4.641,4.76 -5.977,6.16 -1.34,1.39 -2,2.1 -2.004,2.1 l -7.75,-7.25"
         style="fill:#213643;fill-opacity:1;fill-rule:nonzero;stroke:none"
         id="path242" />
      <path
         d="m 1520.24,2061.6 c -0.01,-0.01 -2.48,-4.41 -7.1,-12.39 -16.16,-27.95 -58.41,-99.44 -110.82,-176.14 -52.37,-76.68 -115.03,-158.61 -171.41,-207.12 l 6.93,-8.04 c 66.01,56.88 138.66,156.33 195.13,241.75 56.42,85.4 96.48,156.67 96.52,156.74 l -9.25,5.2"
         style="fill:#213643;fill-opacity:1;fill-rule:nonzero;stroke:none"
         id="path244" />
      <path
         d="m 1533.78,1587 c 0,0 106.6,542.14 343.34,368.35 204.29,-149.97 -132.2,-401.01 -343.34,-368.35"
         style="fill:#f2506b;fill-opacity:1;fill-rule:nonzero;stroke:none"
         id="path246" />
      <path
         d="m 1796.52,1870.01 c 0,0 -0.54,-0.9 -1.66,-2.69 -16.7,-26.92 -159.79,-247.53 -386.43,-343.91 l 4.16,-9.77 c 245.75,104.8 392.71,350.55 393.03,350.92 l -9.1,5.45"
         style="fill:#213643;fill-opacity:1;fill-rule:nonzero;stroke:none"
         id="path248" />
      <path
         d="M 1393.62,1381.21 H 1123.9 c 2.8,-228.67 41.9,-457.351 59.55,-549.601 4.72,-24.699 26.35,-42.519 51.5,-42.519 h 158.67 158.67 c 25.14,0 46.77,17.82 51.5,42.519 17.65,92.25 56.74,320.931 59.55,549.601 h -269.72"
         style="fill:#213643;fill-opacity:1;fill-rule:nonzero;stroke:none"
         id="path250" />
      <path
         d="m 1123.9,1381.21 c 0.79,-64.56 4.47,-129.11 9.75,-190.59 85.93,8.2 171.57,21.75 210.45,44.18 62.58,36.11 221.94,64.83 317.42,79.51 0.92,22.21 1.55,44.56 1.82,66.9 H 1393.62 1123.9"
         style="fill:#182832;fill-opacity:1;fill-rule:nonzero;stroke:none"
         id="path252" />
      <path
         d="m 1146,783.789 h 655.07 v 10.6094 H 1146 Z"
         style="fill:#213643;fill-opacity:1;fill-rule:nonzero;stroke:none"
         id="path254" />
      <path
         d="m 3851.04,345.34 c -4.32,-4.418 -8.03,-9.301 -11.08,-14.531 l -4.66,2.41 c -0.66,2.98 -3.48,5.031 -6.58,4.672 -3.31,-0.391 -5.68,-3.391 -5.29,-6.7 0.39,-3.312 3.39,-5.679 6.7,-5.293 l 1.83,0.532 4.51,-2.348 c -2.51,-5.543 -4.32,-11.383 -5.39,-17.441 l 7.46,-1.309 c 2.31,13.059 8.5,25.059 17.92,34.719 l -5.42,5.289"
         style="fill:#94b3c2;fill-opacity:1;fill-rule:nonzero;stroke:none"
         id="path256" />
      <path
         d="m 3905.92,368.371 c -1.71,0 -3.41,-0.07 -5.1,-0.18 l -0.73,6.258 c 1.87,1.5 2.96,3.903 2.65,6.449 -0.45,3.934 -4.02,6.754 -7.95,6.293 -3.93,-0.472 -6.74,-4.031 -6.28,-7.961 0.3,-2.539 1.89,-4.609 4.05,-5.64 l 0.73,-6.238 c -7.14,-1.161 -14.03,-3.321 -20.59,-6.461 l 3.27,-6.84 c 9.33,4.48 19.41,6.73 29.95,6.73 4.96,0 9.93,-0.531 14.74,-1.57 l 1.62,7.41 c -5.36,1.149 -10.85,1.75 -16.36,1.75"
         style="fill:#94b3c2;fill-opacity:1;fill-rule:nonzero;stroke:none"
         id="path258" />
      <path
         d="m 3971.94,342.891 c 3.31,0.41 5.67,3.418 5.26,6.73 -0.4,3.309 -3.42,5.649 -6.72,5.25 -3.1,-0.379 -5.35,-3.031 -5.3,-6.082 l -4.16,-3.629 c -4.18,4.289 -8.9,8.121 -14.09,11.379 l -4.03,-6.398 c 11.34,-7.149 20.21,-17.27 25.64,-29.262 l 6.9,3.121 c -2.51,5.551 -5.67,10.73 -9.42,15.449 l 4.02,3.52 1.9,-0.078"
         style="fill:#94b3c2;fill-opacity:1;fill-rule:nonzero;stroke:none"
         id="path260" />
      <path
         d="m 3900.44,266.281 c -3.86,-0.242 -7.74,-0.34 -11.57,-0.34 -8.8,0 -17.33,0.598 -24.78,1.778 -3.9,0.633 -8.46,1.562 -12.7,2.922 10.46,-18.602 30.69,-31.25 53.88,-31.25 28.56,0 52.62,19.16 59.5,45.039 -6.82,-4.489 -15.06,-8.25 -24.59,-11.231 -11.79,-3.668 -25.54,-6.058 -39.74,-6.918"
         style="fill:#94b3c2;fill-opacity:1;fill-rule:nonzero;stroke:none"
         id="path262" />
      <path
         d="m 3931.7,297.141 c -7.5,0 -13.6,6.101 -13.6,13.601 0,7.5 6.1,13.61 13.6,13.61 7.5,0 13.6,-6.11 13.6,-13.61 0,-7.5 -6.1,-13.601 -13.6,-13.601 z m -47.37,-9.082 c -10.21,0 -18.5,8.3 -18.5,18.492 0,10.211 8.29,18.5 18.5,18.5 10.19,0 18.49,-8.289 18.49,-18.5 0,-10.192 -8.3,-18.492 -18.49,-18.492 z m 21.59,65.14 c -33.53,0 -60.79,-26.66 -60.79,-59.429 0,-4.258 0.46,-8.489 1.36,-12.622 6.74,-4.816 27.06,-8.886 53.48,-7.296 28.79,1.73 52.97,9.57 66.72,21.578 -0.05,1.949 -0.21,3.91 -0.45,5.82 -3.8,29.621 -29.74,51.949 -60.32,51.949"
         style="fill:#94b3c2;fill-opacity:1;fill-rule:nonzero;stroke:none"
         id="path264" />
      <path
         d="m 4065.96,334.531 c -2.95,1.16 -8.06,3.09 -13.83,2.367 -5.51,-0.679 -8.44,-3.386 -8.44,-10.058 v -8.66 h 22.28 v -17.168 h -22.28 v -54.551 h -19.31 v 54.551 h -13.4 v 17.168 h 13.4 v 8.879 c 0,16.812 8.95,27.832 25.68,27.832 6.42,0 11.57,-1.219 15.9,-3.082 v -17.278"
         style="fill:#94b3c2;fill-opacity:1;fill-rule:nonzero;stroke:none"
         id="path266" />
      <path
         d="m 4112.98,301.211 c -1.77,0.301 -3.58,0.469 -5.27,0.469 -8.95,0 -15.09,-5.481 -15.09,-16.141 v -39.078 h -19.32 v 71.719 h 18.73 v -7.848 c 4.51,6.738 11.4,9.777 20.21,9.777 4.14,0 8.47,-1.277 10.93,-3.367 l -10.19,-15.531"
         style="fill:#94b3c2;fill-opacity:1;fill-rule:nonzero;stroke:none"
         id="path268" />
      <path
         d="m 4138.51,289.09 h 31.75 c -1.77,9.18 -7.33,14.359 -15.62,14.359 -9.1,0 -14.43,-5.469 -16.13,-14.359 z m 51.14,-6.66 c 0,-2.219 -0.15,-4.879 -0.37,-6.508 h -50.84 c 2.07,-10.363 9.32,-14.883 18.43,-14.883 6.21,0 12.94,2.512 18.13,6.883 l 11.32,-12.43 c -8.14,-7.472 -18.51,-10.883 -30.57,-10.883 -21.98,0 -37.22,14.95 -37.22,37.532 0,22.57 14.8,37.968 36.26,37.968 20.65,0 34.79,-15.32 34.86,-37.679"
         style="fill:#94b3c2;fill-opacity:1;fill-rule:nonzero;stroke:none"
         id="path270" />
      <path
         d="m 4215.04,289.09 h 31.76 c -1.78,9.18 -7.34,14.359 -15.63,14.359 -9.1,0 -14.43,-5.469 -16.13,-14.359 z m 51.14,-6.66 c 0,-2.219 -0.14,-4.879 -0.37,-6.508 h -50.84 c 2.07,-10.363 9.32,-14.883 18.43,-14.883 6.21,0 12.95,2.512 18.13,6.883 l 11.32,-12.43 c -8.14,-7.472 -18.5,-10.883 -30.56,-10.883 -21.99,0 -37.23,14.95 -37.23,37.532 0,22.57 14.8,37.968 36.26,37.968 20.65,0 34.79,-15.32 34.86,-37.679"
         style="fill:#94b3c2;fill-opacity:1;fill-rule:nonzero;stroke:none"
         id="path272" />
      <path
         d="m 4292.87,282.352 c 0,-11.313 7.48,-19.75 18.43,-19.75 11.4,0 18.5,8.808 18.5,19.75 0,10.957 -7.1,19.769 -18.5,19.769 -10.95,0 -18.43,-8.441 -18.43,-19.769 z m 56.77,0 c 0,-21.532 -14.95,-37.743 -34.71,-37.743 -9.63,0 -16.43,3.782 -21.09,9.332 v -37.082 h -19.25 V 318.18 h 18.88 v -7.918 c 4.66,5.84 11.54,9.847 21.38,9.847 19.84,0 34.79,-16.207 34.79,-37.757"
         style="fill:#94b3c2;fill-opacity:1;fill-rule:nonzero;stroke:none"
         id="path274" />
      <path
         d="m 4378.09,246.461 h -19.32 v 71.719 h 19.32 z m 2.58,95.18 c 0,-6.95 -5.4,-12.282 -12.35,-12.282 -6.96,0 -12.29,5.332 -12.29,12.282 0,6.961 5.33,12.429 12.29,12.429 6.95,0 12.35,-5.468 12.35,-12.429"
         style="fill:#94b3c2;fill-opacity:1;fill-rule:nonzero;stroke:none"
         id="path276" />
      <path
         d="m 4410.32,292.652 27.01,25.528 h 23.7 l -34.8,-33.75 35.01,-37.969 h -23.76 l -27.16,29.019 v -29.019 h -19.31 v 106.578 h 19.31 v -60.387"
         style="fill:#94b3c2;fill-opacity:1;fill-rule:nonzero;stroke:none"
         id="path278" />
      <path
         d="m 3094.13,266.301 v 32.078 c -3.96,6.152 -12.46,11.422 -21.24,11.422 -14.21,0 -22.71,-11.711 -22.71,-27.391 0,-15.668 8.5,-27.238 22.71,-27.238 8.78,0 17.28,4.98 21.24,11.129 z m 0,-19.192 v 10.551 c -5.28,-7.18 -13.92,-12.308 -23.88,-12.308 -18.46,0 -31.5,14.058 -31.5,37.058 0,22.559 12.9,37.211 31.5,37.211 9.52,0 18.16,-4.691 23.88,-12.449 v 37.637 h 10.98 v -97.7 h -10.98"
         style="fill:#94b3c2;fill-opacity:1;fill-rule:nonzero;stroke:none"
         id="path280" />
      <path
         d="m 3154.03,310.539 c -15.08,0 -22.56,-12.75 -23.14,-23.59 h 46.43 c -0.14,10.551 -7.17,23.59 -23.29,23.59 z m -34.71,-27.98 c 0,20.511 14.64,37.062 34.86,37.062 21.39,0 33.98,-16.699 33.98,-37.941 v -2.778 h -57.27 c 0.88,-13.332 10.25,-24.472 25.49,-24.472 8.05,0 16.26,3.23 21.82,8.941 l 5.28,-7.18 c -7.03,-7.031 -16.56,-10.839 -28.13,-10.839 -20.95,0 -36.03,15.089 -36.03,37.207"
         style="fill:#94b3c2;fill-opacity:1;fill-rule:nonzero;stroke:none"
         id="path282" />
      <path
         d="m 3196.07,256.48 5.71,7.911 c 4.69,-5.422 13.63,-10.102 23.29,-10.102 10.84,0 16.7,5.121 16.7,12.16 0,17.133 -43.8,6.59 -43.8,32.813 0,10.976 9.53,20.359 26.37,20.359 12.01,0 20.51,-4.539 26.22,-10.25 l -5.13,-7.621 c -4.24,5.121 -12.01,8.93 -21.09,8.93 -9.67,0 -15.67,-4.828 -15.67,-11.129 0,-15.531 43.79,-5.27 43.79,-32.809 0,-11.871 -9.52,-21.39 -27.83,-21.39 -11.57,0 -21.38,3.519 -28.56,11.128"
         style="fill:#94b3c2;fill-opacity:1;fill-rule:nonzero;stroke:none"
         id="path284" />
      <path
         d="m 3266.67,247.109 v 70.75 h 10.99 v -70.75 z m -1.9,88.18 c 0,4.102 3.37,7.473 7.32,7.473 4.11,0 7.47,-3.371 7.47,-7.473 0,-4.098 -3.36,-7.32 -7.47,-7.32 -3.95,0 -7.32,3.222 -7.32,7.32"
         style="fill:#94b3c2;fill-opacity:1;fill-rule:nonzero;stroke:none"
         id="path286" />
      <path
         d="m 3347.08,267.469 v 30.91 c -3.8,6.152 -12.3,11.422 -21.08,11.422 -14.22,0 -22.71,-11.27 -22.71,-26.949 0,-15.532 8.49,-26.954 22.71,-26.954 8.78,0 17.28,5.422 21.08,11.571 z m -51.26,-38.52 5.57,8.199 c 5.86,-7.027 12.89,-9.668 22.99,-9.668 11.72,0 22.7,5.711 22.7,21.239 v 10.113 c -5.12,-7.184 -13.76,-12.602 -23.73,-12.602 -18.45,0 -31.48,13.77 -31.48,36.622 0,22.707 12.88,36.769 31.48,36.769 9.53,0 18.03,-4.691 23.73,-12.449 v 10.687 h 10.99 V 249.16 c 0,-23.441 -16.4,-30.762 -33.69,-30.762 -12.01,0 -20.21,2.344 -28.56,10.551"
         style="fill:#94b3c2;fill-opacity:1;fill-rule:nonzero;stroke:none"
         id="path288" />
      <path
         d="m 3424.13,247.109 v 46.289 c 0,12.454 -6.29,16.403 -15.81,16.403 -8.65,0 -16.86,-5.27 -20.95,-10.981 v -51.711 h -10.99 v 70.75 h 10.99 v -10.25 c 4.98,5.86 14.64,12.012 25.19,12.012 14.79,0 22.56,-7.473 22.56,-22.851 v -49.661 h -10.99"
         style="fill:#94b3c2;fill-opacity:1;fill-rule:nonzero;stroke:none"
         id="path290" />
      <path
         d="m 3484.04,310.539 c -15.08,0 -22.56,-12.75 -23.14,-23.59 h 46.43 c -0.15,10.551 -7.18,23.59 -23.29,23.59 z m -34.71,-27.98 c 0,20.511 14.64,37.062 34.86,37.062 21.38,0 33.98,-16.699 33.98,-37.941 v -2.778 h -57.27 c 0.88,-13.332 10.25,-24.472 25.49,-24.472 8.05,0 16.25,3.23 21.82,8.941 l 5.28,-7.18 c -7.03,-7.031 -16.56,-10.839 -28.13,-10.839 -20.95,0 -36.03,15.089 -36.03,37.207"
         style="fill:#94b3c2;fill-opacity:1;fill-rule:nonzero;stroke:none"
         id="path292" />
      <path
         d="m 3583.5,266.301 v 32.078 c -3.96,6.152 -12.45,11.422 -21.24,11.422 -14.21,0 -22.7,-11.711 -22.7,-27.391 0,-15.668 8.49,-27.238 22.7,-27.238 8.79,0 17.28,4.98 21.24,11.129 z m 0,-19.192 v 10.551 c -5.27,-7.18 -13.92,-12.308 -23.88,-12.308 -18.45,0 -31.49,14.058 -31.49,37.058 0,22.559 12.89,37.211 31.49,37.211 9.52,0 18.17,-4.691 23.88,-12.449 v 37.637 h 10.99 v -97.7 h -10.99"
         style="fill:#94b3c2;fill-opacity:1;fill-rule:nonzero;stroke:none"
         id="path294" />
      <path
         d="m 3679,255.172 c 14.35,0 22.85,11.57 22.85,27.238 0,15.68 -8.5,27.391 -22.85,27.391 -8.64,0 -17.29,-5.27 -21.09,-11.422 v -32.078 c 3.8,-6.149 12.45,-11.129 21.09,-11.129 z m -32.08,-8.063 v 97.7 h 10.99 v -37.637 c 5.71,7.758 14.2,12.449 23.87,12.449 18.46,0 31.5,-14.652 31.5,-37.211 0,-23 -13.04,-37.058 -31.5,-37.058 -9.96,0 -18.6,5.128 -23.87,12.308 v -10.551 h -10.99"
         style="fill:#94b3c2;fill-opacity:1;fill-rule:nonzero;stroke:none"
         id="path296" />
      <path
         d="m 3725.28,229.379 c 1.61,-0.731 4.26,-1.168 6.01,-1.168 4.83,0 8.06,1.609 10.55,7.469 l 4.69,10.699 -29.6,71.48 h 11.87 l 23.58,-58.007 23.44,58.007 h 12.01 l -35.45,-85.109 c -4.25,-10.25 -11.42,-14.211 -20.8,-14.352 -2.34,0 -6,0.442 -8.05,1.024 l 1.75,9.957"
         style="fill:#94b3c2;fill-opacity:1;fill-rule:nonzero;stroke:none"
         id="path298" />
    </g>
  </g>
</svg>
